<svg width="78" height="33" viewBox="0 0 78 33" fill="none" xmlns="http://www.w3.org/2000/svg">
<mask id="mask0_9_32" style="mask-type:luminance" maskUnits="userSpaceOnUse" x="0" y="0" width="78" height="33">
<path d="M77.8101 0.579102H0.40374V32.3356H77.8101V0.579102Z" fill="white"/>
</mask>
<g mask="url(#mask0_9_32)">
<path d="M16.5183 12.9857V9.91294H23.5443V5.23083H4.41228V9.91294H11.4382V12.98C5.72998 13.2436 1.43481 14.3707 1.43481 15.7276C1.43481 17.0846 5.72998 18.2117 11.4382 18.4752V28.316H16.5183V18.4809C22.2154 18.2174 26.4993 17.0902 26.4993 15.7332C26.4993 14.3819 22.2154 13.2492 16.5183 12.9857ZM16.5183 17.6453C16.3726 17.651 15.638 17.6958 14.0007 17.6958C12.6886 17.6958 11.769 17.6566 11.4438 17.6397V17.6453C6.40286 17.4211 2.63475 16.5463 2.63475 15.4922C2.63475 14.438 6.39725 13.5633 11.4438 13.3389V16.7707C11.7746 16.793 12.7167 16.8491 14.0232 16.8491C15.5875 16.8491 16.3782 16.7819 16.524 16.7707V13.3389C21.5593 13.5633 25.3163 14.4436 25.3163 15.4922C25.3106 16.5406 21.5537 17.4211 16.5183 17.6453Z" fill="white"/>
<path d="M38.6522 8.82626V15.8603C38.6522 16.6966 38.8692 17.3264 39.3033 17.7498C39.7478 18.1733 40.3617 18.385 41.1451 18.385C41.939 18.385 42.553 18.1733 42.987 17.7498C43.4315 17.3264 43.6539 16.6966 43.6539 15.8603V8.82626H45.464V15.8286C45.464 16.7283 45.2681 17.4905 44.8764 18.115C44.4848 18.7396 43.9609 19.2054 43.3046 19.5124C42.6482 19.8193 41.9231 19.9728 41.1292 19.9728C40.3353 19.9728 39.6102 19.8193 38.9539 19.5124C38.3082 19.2054 37.7948 18.7396 37.4137 18.115C37.0326 17.4905 36.8421 16.7283 36.8421 15.8286V8.82626H38.6522ZM51.4569 19.9728C50.7159 19.9728 50.049 19.8458 49.4563 19.5917C48.8634 19.3271 48.3977 18.9566 48.0589 18.4803C47.7202 18.0039 47.5508 17.4481 47.5508 16.813H49.4879C49.5303 17.2894 49.7156 17.681 50.0437 17.988C50.3825 18.295 50.8535 18.4485 51.4569 18.4485C52.0814 18.4485 52.5683 18.3003 52.9177 18.0039C53.267 17.6969 53.4416 17.3053 53.4416 16.8289C53.4416 16.4584 53.3305 16.1567 53.1082 15.9239C52.8965 15.691 52.6265 15.5111 52.2984 15.384C51.9809 15.257 51.5362 15.1194 50.9646 14.9712C50.2448 14.7806 49.6574 14.5901 49.2022 14.3996C48.7576 14.1984 48.3764 13.8914 48.0589 13.4786C47.7413 13.0658 47.5826 12.5153 47.5826 11.8273C47.5826 11.1921 47.7413 10.6364 48.0589 10.1601C48.3764 9.6837 48.8211 9.31848 49.3927 9.06443C49.9644 8.81038 50.6259 8.68335 51.3775 8.68335C52.4466 8.68335 53.3199 8.95329 53.9974 9.49316C54.6855 10.0224 55.0665 10.7528 55.1407 11.6844H53.1399C53.1082 11.2821 52.9177 10.9381 52.5683 10.6523C52.219 10.3665 51.7585 10.2236 51.1869 10.2236C50.6682 10.2236 50.2448 10.3559 49.9167 10.6205C49.5885 10.8852 49.4245 11.2662 49.4245 11.7637C49.4245 12.1025 49.525 12.3831 49.7262 12.6053C49.9379 12.817 50.2025 12.9863 50.52 13.1134C50.8377 13.2404 51.2716 13.378 51.8221 13.5263C52.5525 13.7274 53.1453 13.9285 53.6004 14.1296C54.0661 14.3308 54.4578 14.643 54.7754 15.0664C55.1036 15.4793 55.2676 16.035 55.2676 16.7336C55.2676 17.2946 55.1142 17.824 54.8072 18.3214C54.5108 18.819 54.0715 19.2212 53.4893 19.5282C52.9176 19.8246 52.2402 19.9728 51.4569 19.9728ZM61.0079 8.82626C62.1829 8.82626 63.2096 9.05384 64.0882 9.50904C64.9775 9.95363 65.6602 10.5994 66.1365 11.4462C66.6235 12.2825 66.867 13.2616 66.867 14.3837C66.867 15.5057 66.6235 16.4795 66.1365 17.3053C65.6602 18.131 64.9775 18.766 64.0882 19.2107C63.2096 19.6446 62.1829 19.8616 61.0079 19.8616H57.4035V8.82626H61.0079ZM61.0079 18.385C62.2994 18.385 63.2891 18.0357 63.9771 17.337C64.6652 16.6384 65.0092 15.6539 65.0092 14.3837C65.0092 13.1029 64.6652 12.1025 63.9771 11.3827C63.2891 10.6629 62.2994 10.303 61.0079 10.303H59.2136V18.385H61.0079ZM75.7902 8.82626V10.303H72.8528V19.8616H71.0427V10.303H68.0893V8.82626H75.7902Z" fill="white"/>
<path d="M42.9364 28.5349V22.536H46.5568V23.1805H43.6628V25.2074H46.3693V25.8518H43.6628V27.8905H46.6037V28.5349H42.9364ZM47.8661 28.5349V22.536H49.8931C50.3618 22.536 50.7464 22.6161 51.0472 22.7762C51.3479 22.9344 51.5706 23.1521 51.715 23.4294C51.8595 23.7067 51.9318 24.0221 51.9318 24.3756C51.9318 24.7289 51.8595 25.0424 51.715 25.3158C51.5706 25.5891 51.3489 25.804 51.0502 25.9602C50.7513 26.1145 50.3696 26.1916 49.9048 26.1916H48.2645V25.5354H49.8814C50.2016 25.5354 50.4594 25.4886 50.6547 25.3949C50.8519 25.3011 50.9944 25.1684 51.0824 24.9965C51.1721 24.8227 51.2171 24.6156 51.2171 24.3756C51.2171 24.1354 51.1721 23.9253 51.0824 23.7457C50.9925 23.5661 50.849 23.4274 50.6517 23.3298C50.4545 23.2302 50.1938 23.1805 49.8696 23.1805H48.5926V28.5349H47.8661ZM50.6898 25.84L52.1662 28.5349H51.3226L49.8696 25.84H50.6898ZM57.9695 24.4107H57.2431C57.2001 24.2017 57.1249 24.0182 57.0175 23.86C56.912 23.7018 56.7832 23.5691 56.6309 23.4616C56.4804 23.3523 56.3135 23.2702 56.1299 23.2156C55.9464 23.1609 55.755 23.1335 55.5558 23.1335C55.1926 23.1335 54.8636 23.2253 54.5687 23.4089C54.2758 23.5925 54.0425 23.863 53.8687 24.2203C53.6969 24.5777 53.611 25.016 53.611 25.5354C53.611 26.0549 53.6969 26.4933 53.8687 26.8507C54.0425 27.208 54.2758 27.4785 54.5687 27.662C54.8636 27.8456 55.1926 27.9374 55.5558 27.9374C55.755 27.9374 55.9464 27.91 56.1299 27.8553C56.3135 27.8006 56.4804 27.7196 56.6309 27.6122C56.7832 27.5029 56.912 27.3691 57.0175 27.2109C57.1249 27.0508 57.2001 26.8672 57.2431 26.6602H57.9695C57.9147 26.9669 57.8152 27.2412 57.6707 27.4833C57.5262 27.7255 57.3465 27.9315 57.1318 28.1014C56.917 28.2693 56.6758 28.3972 56.4082 28.485C56.1427 28.573 55.8585 28.617 55.5558 28.617C55.0442 28.617 54.5893 28.4919 54.1909 28.242C53.7925 27.992 53.479 27.6366 53.2506 27.1758C53.0222 26.7149 52.9079 26.1682 52.9079 25.5354C52.9079 24.9028 53.0222 24.356 53.2506 23.8952C53.479 23.4343 53.7925 23.0788 54.1909 22.8289C54.5893 22.579 55.0442 22.454 55.5558 22.454C55.8585 22.454 56.1427 22.4979 56.4082 22.5858C56.6758 22.6737 56.917 22.8026 57.1318 22.9725C57.3465 23.1404 57.5262 23.3455 57.6707 23.5876C57.8152 23.8278 57.9147 24.1021 57.9695 24.4107ZM61.6272 25.2133V25.8577H59.0027V25.2133H61.6272ZM62.5499 28.5349V28.0077L64.53 25.84C64.7624 25.5863 64.9537 25.3655 65.1041 25.1781C65.2545 24.9887 65.3658 24.811 65.4381 24.645C65.5122 24.4771 65.5493 24.3013 65.5493 24.1177C65.5493 23.9068 65.4986 23.7243 65.3971 23.57C65.2975 23.4157 65.1607 23.2967 64.987 23.2127C64.8131 23.1287 64.6179 23.0867 64.4011 23.0867C64.1707 23.0867 63.9695 23.1346 63.7977 23.2302C63.6278 23.324 63.496 23.4558 63.4023 23.6257C63.3106 23.7956 63.2647 23.9948 63.2647 24.2232H62.5733C62.5733 23.8717 62.6544 23.5632 62.8165 23.2976C62.9786 23.032 63.1992 22.8251 63.4784 22.6767C63.7596 22.5282 64.075 22.454 64.4245 22.454C64.7761 22.454 65.0876 22.5282 65.359 22.6767C65.6304 22.8251 65.8432 23.0251 65.9975 23.2771C66.1518 23.5289 66.2289 23.8093 66.2289 24.1177C66.2289 24.3384 66.1889 24.5542 66.1088 24.7651C66.0307 24.9741 65.8941 25.2074 65.6988 25.4651C65.5055 25.721 65.2369 26.0334 64.8933 26.4025L63.5458 27.8436V27.8905H66.3343V28.5349H62.5499ZM69.5008 28.617C69.0595 28.617 68.6835 28.4968 68.373 28.2566C68.0625 28.0145 67.8253 27.664 67.6613 27.205C67.4972 26.7442 67.4152 26.1876 67.4152 25.5354C67.4152 24.8872 67.4972 24.3335 67.6613 23.8746C67.8273 23.4138 68.0655 23.0623 68.376 22.8201C68.6884 22.5761 69.0633 22.454 69.5008 22.454C69.9382 22.454 70.3121 22.5761 70.6226 22.8201C70.9351 23.0623 71.1734 23.4138 71.3374 23.8746C71.5033 24.3335 71.5863 24.8872 71.5863 25.5354C71.5863 26.1876 71.5043 26.7442 71.3403 27.205C71.1763 27.664 70.939 28.0145 70.6285 28.2566C70.318 28.4968 69.9421 28.617 69.5008 28.617ZM69.5008 27.9725C69.9382 27.9725 70.278 27.7616 70.5201 27.3398C70.7622 26.918 70.8833 26.3166 70.8833 25.5354C70.8833 25.016 70.8277 24.5737 70.7164 24.2085C70.607 23.8434 70.4488 23.5651 70.2418 23.3737C70.0368 23.1824 69.7898 23.0867 69.5008 23.0867C69.0673 23.0867 68.7284 23.3005 68.4844 23.7282C68.2402 24.1539 68.1183 24.7563 68.1183 25.5354C68.1183 26.0549 68.1728 26.4962 68.2823 26.8594C68.3916 27.2227 68.5488 27.4989 68.7538 27.6884C68.9608 27.8778 69.2098 27.9725 69.5008 27.9725Z" fill="white"/>
</g>
</svg>
