<svg width="29" height="29" viewBox="0 0 29 29" fill="none" xmlns="http://www.w3.org/2000/svg">
<path d="M8.28097 6.51526C3.91966 6.51526 0.384094 10.0752 0.384094 14.4663C0.384094 18.8574 3.91993 22.4173 8.28097 22.4173C12.642 22.4173 16.1778 18.8576 16.1778 14.4663C16.1778 10.075 12.6425 6.51526 8.28097 6.51526ZM20.8919 6.98102C18.7112 6.98102 16.9437 10.3331 16.9437 14.4664C16.9437 18.5998 18.7115 21.9521 20.8922 21.9521C23.0729 21.9521 24.8407 18.6 24.8407 14.4664H24.8403C24.8403 10.3319 23.0728 6.98102 20.892 6.98102H20.8919ZM26.9953 7.76069C26.2285 7.76069 25.6069 10.7632 25.6069 14.4664C25.6069 18.1697 26.2281 21.1722 26.9953 21.1722C27.7624 21.1722 28.3841 18.1689 28.3841 14.4663C28.3841 10.7629 27.7622 7.76069 26.9954 7.76069H26.9953Z" fill="#F0B90B"/>
</svg>
