<svg width="12" height="12" viewBox="0 0 12 12" fill="none" xmlns="http://www.w3.org/2000/svg">
<g clip-path="url(#clip0_5_1144)">
<path d="M11.6683 3.6187L11.1203 3.06677C11.0878 3.03231 11.0486 3.00485 11.0051 2.98608C10.9617 2.96731 10.9148 2.95763 10.8675 2.95763C10.8201 2.95763 10.7733 2.96731 10.7298 2.98608C10.6863 3.00485 10.6471 3.03231 10.6146 3.06677L6.28412 7.3973L1.95359 3.06677C1.92108 3.0317 1.88167 3.00371 1.83783 2.98458C1.794 2.96544 1.74669 2.95557 1.69886 2.95557C1.65103 2.95557 1.60372 2.96544 1.55988 2.98458C1.51605 3.00371 1.47664 3.0317 1.44412 3.06677L0.89991 3.6187C0.865448 3.65117 0.837989 3.69035 0.819221 3.73383C0.800453 3.7773 0.790771 3.82415 0.790771 3.87151C0.790771 3.91886 0.800453 3.96571 0.819221 4.00919C0.837989 4.05266 0.865448 4.09184 0.89991 4.12431L6.03324 9.25765C6.06572 9.29211 6.1049 9.31957 6.14837 9.33834C6.19185 9.3571 6.2387 9.36679 6.28605 9.36679C6.3334 9.36679 6.38026 9.3571 6.42373 9.33834C6.4672 9.31957 6.50638 9.29211 6.53886 9.25765L11.6722 4.12431C11.706 4.09189 11.733 4.05294 11.7514 4.00983C11.7698 3.96671 11.7793 3.92032 11.7793 3.87344C11.7793 3.82656 11.7698 3.78016 11.7514 3.73704C11.733 3.69393 11.706 3.65498 11.6722 3.62256L11.6683 3.6187Z" fill="#F2F2F2"/>
</g>
<defs>
<clipPath id="clip0_5_1144">
<rect width="11" height="11" fill="white" transform="translate(0.784119 0.666016)"/>
</clipPath>
</defs>
</svg>
