<svg width="21" height="21" viewBox="0 0 21 21" fill="none" xmlns="http://www.w3.org/2000/svg">
<path d="M7.59077 8.16638C8.04827 7.19555 9.28244 6.49971 10.7341 6.49971C12.5758 6.49971 14.0674 7.61888 14.0674 8.99972C14.0674 10.1664 13.0024 11.1455 11.5624 11.4222C11.1108 11.5089 10.7341 11.8722 10.7341 12.333M10.7341 14.833H10.7424M18.2341 10.6664C18.2341 11.6513 18.0401 12.6266 17.6632 13.5365C17.2863 14.4464 16.7338 15.2732 16.0374 15.9697C15.341 16.6661 14.5142 17.2186 13.6042 17.5955C12.6943 17.9724 11.719 18.1664 10.7341 18.1664C9.74919 18.1664 8.77392 17.9724 7.86398 17.5955C6.95404 17.2186 6.12724 16.6661 5.4308 15.9697C4.73436 15.2732 4.18192 14.4464 3.80501 13.5365C3.4281 12.6266 3.2341 11.6513 3.2341 10.6664C3.2341 8.67726 4.02428 6.7696 5.4308 5.36308C6.83733 3.95656 8.74498 3.16638 10.7341 3.16638C12.7232 3.16638 14.6309 3.95656 16.0374 5.36308C17.4439 6.7696 18.2341 8.67726 18.2341 10.6664Z" stroke="white" stroke-width="1.66667" stroke-linecap="round" stroke-linejoin="round"/>
</svg>
