<svg width="18" height="18" viewBox="0 0 18 18" fill="none" xmlns="http://www.w3.org/2000/svg">
<path d="M15.7876 1.9531C15.782 1.92585 15.7687 1.90078 15.7493 1.88084C15.7299 1.8609 15.7052 1.84692 15.6781 1.84054C13.8725 1.39894 9.7015 2.97244 7.43937 5.23291C7.03621 5.63276 6.6686 6.06692 6.34068 6.53049C5.64342 6.4674 4.94615 6.52052 4.35248 6.77951C2.67605 7.51662 2.1883 9.44174 2.05217 10.2682C2.04479 10.3134 2.04794 10.3598 2.06137 10.4037C2.0748 10.4476 2.09816 10.4877 2.12962 10.5211C2.16109 10.5545 2.19982 10.5802 2.24281 10.5962C2.28581 10.6123 2.33191 10.6181 2.37756 10.6135L5.06933 10.318C5.0712 10.521 5.08339 10.7238 5.10586 10.9256C5.11991 11.0651 5.18213 11.1953 5.28183 11.2938L6.32408 12.3361C6.4227 12.4358 6.55304 12.4981 6.69263 12.512C6.89321 12.5344 7.09479 12.5466 7.2966 12.5486L7.00142 15.238C6.99682 15.2836 7.00275 15.3296 7.01877 15.3725C7.03479 15.4155 7.06046 15.4541 7.09381 15.4856C7.12715 15.517 7.16727 15.5403 7.21107 15.5537C7.25487 15.5672 7.30118 15.5704 7.3464 15.5631C8.17316 15.4303 10.1023 14.9425 10.8351 13.2664C11.094 12.6721 11.1472 11.9785 11.0874 11.2845C11.5523 10.9569 11.9877 10.5893 12.3886 10.1858C14.6591 7.92801 16.2226 3.84867 15.7876 1.9531ZM10.3705 7.26095C10.1722 7.06269 10.0372 6.81007 9.98244 6.53504C9.92771 6.26001 9.95577 5.97492 10.0631 5.71584C10.1704 5.45676 10.3521 5.23531 10.5852 5.07951C10.8184 4.92371 11.0925 4.84055 11.3729 4.84055C11.6534 4.84055 11.9275 4.92371 12.1607 5.07951C12.3938 5.23531 12.5755 5.45676 12.6828 5.71584C12.7901 5.97492 12.8182 6.26001 12.7635 6.53504C12.7087 6.81007 12.5737 7.06269 12.3753 7.26095C12.2438 7.39277 12.0876 7.49735 11.9156 7.5687C11.7436 7.64006 11.5592 7.67678 11.3729 7.67678C11.1867 7.67678 11.0023 7.64006 10.8303 7.5687C10.6583 7.49735 10.5021 7.39277 10.3705 7.26095Z" stroke="white" stroke-width="1.0625" stroke-linecap="round" stroke-linejoin="round"/>
<path d="M4.09449 11.8539C3.76349 11.8945 3.45556 12.0446 3.21959 12.2802C2.63455 12.8672 2.5791 15.0414 2.5791 15.0414C2.5791 15.0414 4.75457 14.9859 5.33994 14.4002C5.57654 14.1646 5.72685 13.8562 5.7666 13.5247" stroke="white" stroke-width="1.0625" stroke-linecap="round" stroke-linejoin="round"/>
</svg>
