<svg width="21" height="21" viewBox="0 0 21 21" fill="none" xmlns="http://www.w3.org/2000/svg">
<path d="M6.52472 4.38721C3.4095 4.38721 0.884094 6.93005 0.884094 10.0665C0.884094 13.203 3.40969 15.7458 6.52472 15.7458C9.63975 15.7458 12.1653 13.2032 12.1653 10.0665C12.1653 6.92986 9.64006 4.38721 6.52472 4.38721ZM15.5325 4.71989C13.9749 4.71989 12.7124 7.11424 12.7124 10.0666C12.7124 13.019 13.9751 15.4135 15.5327 15.4135C17.0904 15.4135 18.3531 13.0191 18.3531 10.0666H18.3528C18.3528 7.11339 17.0903 4.71989 15.5326 4.71989H15.5325ZM19.8921 5.2768C19.3444 5.2768 18.9004 7.42143 18.9004 10.0666C18.9004 12.7118 19.3441 14.8564 19.8921 14.8564C20.4401 14.8564 20.8841 12.7112 20.8841 10.0665C20.8841 7.42124 20.4399 5.2768 19.8922 5.2768H19.8921Z" fill="#F0B90B"/>
</svg>
