<svg width="21" height="21" viewBox="0 0 21 21" fill="none" xmlns="http://www.w3.org/2000/svg">
<path d="M7.12076 8.16638C7.57826 7.19555 8.81242 6.49971 10.2641 6.49971C12.1058 6.49971 13.5974 7.61888 13.5974 8.99972C13.5974 10.1664 12.5324 11.1455 11.0924 11.4222C10.6408 11.5089 10.2641 11.8722 10.2641 12.333M10.2641 14.833H10.2724M17.7641 10.6664C17.7641 11.6513 17.5701 12.6266 17.1932 13.5365C16.8163 14.4464 16.2638 15.2732 15.5674 15.9697C14.871 16.6661 14.0442 17.2186 13.1342 17.5955C12.2243 17.9724 11.249 18.1664 10.2641 18.1664C9.27918 18.1664 8.30391 17.9724 7.39397 17.5955C6.48402 17.2186 5.65723 16.6661 4.96079 15.9697C4.26435 15.2732 3.71191 14.4464 3.33499 13.5365C2.95808 12.6266 2.76409 11.6513 2.76409 10.6664C2.76409 8.67726 3.55427 6.7696 4.96079 5.36308C6.36731 3.95656 8.27497 3.16638 10.2641 3.16638C12.2532 3.16638 14.1609 3.95656 15.5674 5.36308C16.9739 6.7696 17.7641 8.67726 17.7641 10.6664Z" stroke="white" stroke-width="1.66667" stroke-linecap="round" stroke-linejoin="round"/>
</svg>
