<svg width="21" height="21" viewBox="0 0 21 21" fill="none" xmlns="http://www.w3.org/2000/svg">
<path d="M18.8282 5.99303C18.8409 6.17068 18.8409 6.34838 18.8409 6.52603C18.8409 11.9448 14.7166 18.1885 7.17851 18.1885C4.85616 18.1885 2.69882 17.5158 0.884094 16.3484C1.21406 16.3864 1.53128 16.3991 1.87394 16.3991C3.79015 16.3991 5.55413 15.7519 6.96277 14.6479C5.16073 14.6098 3.65058 13.4296 3.13027 11.8052C3.38409 11.8433 3.63788 11.8687 3.90441 11.8687C4.27241 11.8687 4.64046 11.8179 4.98308 11.7291C3.10491 11.3483 1.69624 9.69861 1.69624 7.70623V7.65549C2.24191 7.96006 2.87648 8.15041 3.54902 8.17576C2.44495 7.43971 1.72163 6.18338 1.72163 4.76205C1.72163 4.00064 1.92464 3.30268 2.27999 2.69354C4.29777 5.18084 7.33077 6.80518 10.7318 6.98287C10.6683 6.6783 10.6302 6.36107 10.6302 6.04381C10.6302 3.7849 12.4576 1.94482 14.7292 1.94482C15.9094 1.94482 16.9754 2.43975 17.7241 3.23924C18.6505 3.06158 19.5388 2.71893 20.3257 2.24939C20.021 3.20119 19.3739 4.00068 18.5236 4.50826C19.3485 4.41947 20.148 4.191 20.884 3.87377C20.3257 4.68592 19.6277 5.40924 18.8282 5.99303Z" fill="#F0B90B"/>
</svg>
