<svg width="34" height="34" viewBox="0 0 34 34" fill="none" xmlns="http://www.w3.org/2000/svg">
<path d="M26.8765 9.12646H12.5679C10.5389 9.12646 8.8941 10.7713 8.8941 12.8003V27.1089C8.8941 29.1379 10.5389 30.7827 12.5679 30.7827H26.8765C28.9055 30.7827 30.5504 29.1379 30.5504 27.1089V12.8003C30.5504 10.7713 28.9055 9.12646 26.8765 9.12646Z" stroke="white" stroke-width="2.0625" stroke-linejoin="round"/>
<path d="M25.3619 9.12646L25.3941 7.57959C25.3914 6.62316 25.0102 5.70668 24.3339 5.03038C23.6576 4.35408 22.7412 3.97294 21.7847 3.97021H7.86285C6.76983 3.97345 5.7225 4.40908 4.94961 5.18197C4.17672 5.95486 3.74108 7.00219 3.73785 8.09521V22.0171C3.74058 22.9735 4.12172 23.89 4.79802 24.5663C5.47432 25.2426 6.3908 25.6237 7.34723 25.6265H8.8941" stroke="white" stroke-width="2.0625" stroke-linecap="round" stroke-linejoin="round"/>
</svg>
