<svg width="26" height="26" viewBox="0 0 26 26" fill="none" xmlns="http://www.w3.org/2000/svg">
<path d="M23.4284 2.9938C23.4201 2.95372 23.4005 2.91686 23.372 2.88753C23.3434 2.85821 23.3071 2.83765 23.2673 2.82827C20.612 2.17885 14.4782 4.49282 11.1516 7.81704C10.5587 8.40505 10.0181 9.04353 9.53583 9.72524C8.51044 9.63247 7.48505 9.71059 6.612 10.0915C4.14667 11.1754 3.42939 14.0065 3.22919 15.2218C3.21834 15.2884 3.22298 15.3566 3.24273 15.4211C3.26248 15.4856 3.29683 15.5447 3.3431 15.5938C3.38937 15.643 3.44633 15.6807 3.50956 15.7043C3.57278 15.7278 3.64059 15.7365 3.70771 15.7296L7.6662 15.2951C7.66894 15.5936 7.68687 15.8919 7.71991 16.1886C7.74057 16.3937 7.83209 16.5852 7.9787 16.7301L9.51142 18.2628C9.65645 18.4096 9.84813 18.5011 10.0534 18.5216C10.3484 18.5545 10.6448 18.5725 10.9416 18.5753L10.5075 22.5304C10.5007 22.5975 10.5095 22.6651 10.533 22.7283C10.5566 22.7914 10.5943 22.8483 10.6434 22.8945C10.6924 22.9407 10.7514 22.975 10.8158 22.9947C10.8802 23.0145 10.9483 23.0192 11.0148 23.0084C12.2307 22.8131 15.0676 22.0958 16.1452 19.631C16.5261 18.757 16.6042 17.737 16.5163 16.7165C17.2 16.2347 17.8403 15.694 18.4299 15.1007C21.7687 11.7804 24.0681 5.78139 23.4284 2.9938ZM15.4621 10.7995C15.1705 10.5079 14.9718 10.1364 14.8914 9.73193C14.8109 9.32748 14.8521 8.90824 15.0099 8.52723C15.1677 8.14623 15.4349 7.82057 15.7778 7.59145C16.1207 7.36233 16.5238 7.24004 16.9362 7.24004C17.3486 7.24004 17.7517 7.36233 18.0946 7.59145C18.4375 7.82057 18.7047 8.14623 18.8625 8.52723C19.0203 8.90824 19.0616 9.32748 18.9811 9.73193C18.9006 10.1364 18.702 10.5079 18.4103 10.7995C18.2169 10.9933 17.9871 11.1471 17.7342 11.252C17.4812 11.357 17.2101 11.411 16.9362 11.411C16.6624 11.411 16.3912 11.357 16.1383 11.252C15.8853 11.1471 15.6555 10.9933 15.4621 10.7995Z" stroke="#F0B90B" stroke-width="1.5625" stroke-linecap="round" stroke-linejoin="round"/>
<path d="M6.23261 17.5538C5.74585 17.6136 5.293 17.8343 4.94599 18.1808C4.08564 19.0441 4.00409 22.2413 4.00409 22.2413C4.00409 22.2413 7.20331 22.1598 8.06415 21.2985C8.41209 20.952 8.63313 20.4984 8.69159 20.0109" stroke="#F0B90B" stroke-width="1.5625" stroke-linecap="round" stroke-linejoin="round"/>
</svg>
