<svg width="26" height="26" viewBox="0 0 26 26" fill="none" xmlns="http://www.w3.org/2000/svg">
<path d="M22.8143 8.37431C22.8301 8.59638 22.8301 8.8185 22.8301 9.04057C22.8301 15.814 17.6747 23.6186 8.25211 23.6186C5.34918 23.6186 2.6525 22.7778 0.384094 21.3185C0.796545 21.3661 1.19308 21.3819 1.6214 21.3819C4.01666 21.3819 6.22164 20.5729 7.98243 19.1929C5.7299 19.1453 3.8422 17.67 3.19181 15.6395C3.50909 15.6871 3.82633 15.7188 4.15948 15.7188C4.61949 15.7188 5.07955 15.6554 5.50782 15.5444C3.16012 15.0684 1.39928 13.0063 1.39928 10.5158V10.4524C2.08136 10.8331 2.87457 11.071 3.71525 11.1027C2.33517 10.1827 1.43102 8.61225 1.43102 6.83559C1.43102 5.88383 1.68478 5.01137 2.12897 4.24995C4.65118 7.35908 8.44244 9.3895 12.6937 9.61162C12.6144 9.2309 12.5668 8.83437 12.5668 8.43779C12.5668 5.61415 14.851 3.31406 17.6905 3.31406C19.1657 3.31406 20.4982 3.93271 21.4341 4.93207C22.5921 4.71 23.7025 4.28168 24.686 3.69477C24.3053 4.88452 23.4963 5.88388 22.4335 6.51835C23.4646 6.40737 24.464 6.12177 25.384 5.72524C24.6861 6.74042 23.8136 7.64457 22.8143 8.37431Z" fill="#F0B90B"/>
</svg>
