<svg width="79" height="34" viewBox="0 0 79 34" fill="none" xmlns="http://www.w3.org/2000/svg">
<path d="M19.4903 2.3916V13.0248L28.4772 17.0416L19.4903 2.3916Z" fill="white" fill-opacity="0.602"/>
<path d="M19.4892 2.3916L10.497 17.0416L19.4892 13.0248V2.3916Z" fill="white"/>
<path d="M19.4903 23.9348V31.1607L28.4824 18.7145L19.4903 23.9348Z" fill="white" fill-opacity="0.602"/>
<path d="M19.4892 31.1604V23.9344L10.497 18.7195L19.4892 31.1604Z" fill="white"/>
<path d="M19.4903 22.2606L28.4772 17.0403L19.4903 13.0288V22.2606Z" fill="white" fill-opacity="0.2"/>
<path d="M10.497 17.0403L19.4892 22.2606V13.0288L10.497 17.0403Z" fill="white" fill-opacity="0.602"/>
<path d="M41.4976 10.2888V13.5279H45.3084V15.0046H41.4976V18.3867H45.7847V19.8634H39.6875V8.81213H45.7847V10.2888H41.4976ZM55.1437 8.82802V10.3047H52.2061V19.8634H50.396V10.3047H47.4427V8.82802H55.1437ZM65.7891 8.82802V19.8634H63.9791V15.0364H58.7869V19.8634H56.9767V8.82802H58.7869V13.5597H63.9791V8.82802H65.7891Z" fill="white"/>
<path d="M38.5484 28.535V22.5362H42.1688V23.1806H39.2747V25.2075H41.9812V25.8519H39.2747V27.8906H42.2157V28.535H38.5484ZM43.478 28.535V22.5362H45.5051C45.9737 22.5362 46.3584 22.6162 46.6592 22.7764C46.9598 22.9345 47.1825 23.1522 47.327 23.4295C47.4714 23.7069 47.5438 24.0222 47.5438 24.3757C47.5438 24.729 47.4714 25.0425 47.327 25.3159C47.1825 25.5892 46.9609 25.8041 46.6621 25.9603C46.3633 26.1146 45.9815 26.1917 45.5167 26.1917H43.8765V25.5355H45.4933C45.8136 25.5355 46.0714 25.4887 46.2666 25.395C46.4639 25.3012 46.6064 25.1685 46.6943 24.9966C46.7841 24.8229 46.8291 24.6158 46.8291 24.3757C46.8291 24.1355 46.7841 23.9255 46.6943 23.7459C46.6045 23.5662 46.4609 23.4276 46.2637 23.3299C46.0664 23.2303 45.8058 23.1806 45.4816 23.1806H44.2045V28.535H43.478ZM46.3018 25.8402L47.7781 28.535H46.9345L45.4816 25.8402H46.3018ZM53.5814 24.4108H52.855C52.8121 24.2018 52.7368 24.0183 52.6294 23.8601C52.524 23.7019 52.3951 23.5692 52.2429 23.4617C52.0924 23.3524 51.9255 23.2703 51.7419 23.2157C51.5583 23.161 51.3669 23.1337 51.1678 23.1337C50.8046 23.1337 50.4756 23.2254 50.1807 23.409C49.8878 23.5926 49.6545 23.8631 49.4806 24.2204C49.3088 24.5778 49.2229 25.0161 49.2229 25.5355C49.2229 26.055 49.3088 26.4934 49.4806 26.8508C49.6545 27.2081 49.8878 27.4786 50.1807 27.6622C50.4756 27.8457 50.8046 27.9375 51.1678 27.9375C51.3669 27.9375 51.5583 27.9102 51.7419 27.8555C51.9255 27.8007 52.0924 27.7197 52.2429 27.6123C52.3951 27.503 52.524 27.3692 52.6294 27.211C52.7368 27.0509 52.8121 26.8673 52.855 26.6603H53.5814C53.5267 26.967 53.4271 27.2413 53.2827 27.4835C53.1382 27.7256 52.9585 27.9316 52.7437 28.1015C52.5289 28.2694 52.2877 28.3973 52.0202 28.4852C51.7547 28.5731 51.4705 28.6171 51.1678 28.6171C50.6562 28.6171 50.2012 28.4921 49.8029 28.2421C49.4044 27.9921 49.091 27.6367 48.8626 27.1759C48.6341 26.715 48.5198 26.1683 48.5198 25.5355C48.5198 24.9029 48.6341 24.3561 48.8626 23.8953C49.091 23.4344 49.4044 23.079 49.8029 22.829C50.2012 22.5791 50.6562 22.4541 51.1678 22.4541C51.4705 22.4541 51.7547 22.4981 52.0202 22.5859C52.2877 22.6738 52.5289 22.8027 52.7437 22.9726C52.9585 23.1406 53.1382 23.3456 53.2827 23.5877C53.4271 23.8279 53.5267 24.1023 53.5814 24.4108ZM57.2392 25.2134V25.8578H54.6147V25.2134H57.2392ZM58.1619 28.535V28.0078L60.1419 25.8402C60.3743 25.5864 60.5657 25.3656 60.716 25.1782C60.8665 24.9888 60.9777 24.8111 61.05 24.6452C61.1242 24.4772 61.1613 24.3014 61.1613 24.1179C61.1613 23.9069 61.1105 23.7244 61.009 23.5701C60.9094 23.4158 60.7727 23.2968 60.5989 23.2128C60.4251 23.1288 60.2299 23.0869 60.0131 23.0869C59.7827 23.0869 59.5815 23.1347 59.4097 23.2303C59.2398 23.3241 59.108 23.4559 59.0143 23.6258C58.9225 23.7957 58.8766 23.9949 58.8766 24.2233H58.1853C58.1853 23.8718 58.2663 23.5633 58.4284 23.2977C58.5905 23.0322 58.8112 22.8252 59.0904 22.6768C59.3716 22.5284 59.687 22.4541 60.0365 22.4541C60.388 22.4541 60.6995 22.5284 60.9709 22.6768C61.2423 22.8252 61.4552 23.0253 61.6095 23.2772C61.7637 23.5291 61.8408 23.8094 61.8408 24.1179C61.8408 24.3385 61.8008 24.5543 61.7208 24.7652C61.6427 24.9742 61.506 25.2075 61.3107 25.4652C61.1174 25.7211 60.8488 26.0336 60.5052 26.4026L59.1577 27.8437V27.8906H61.9463V28.535H58.1619ZM65.1127 28.6171C64.6714 28.6171 64.2955 28.4969 63.985 28.2567C63.6745 28.0146 63.4372 27.6641 63.2732 27.2052C63.1092 26.7443 63.0271 26.1877 63.0271 25.5355C63.0271 24.8873 63.1092 24.3336 63.2732 23.8747C63.4393 23.4139 63.6774 23.0625 63.9879 22.8202C64.3004 22.5762 64.6753 22.4541 65.1127 22.4541C65.5502 22.4541 65.9241 22.5762 66.2346 22.8202C66.547 23.0625 66.7853 23.4139 66.9493 23.8747C67.1153 24.3336 67.1982 24.8873 67.1982 25.5355C67.1982 26.1877 67.1163 26.7443 66.9523 27.2052C66.7882 27.6641 66.551 28.0146 66.2405 28.2567C65.93 28.4969 65.554 28.6171 65.1127 28.6171ZM65.1127 27.9727C65.5502 27.9727 65.89 27.7617 66.1321 27.3399C66.3742 26.9182 66.4953 26.3167 66.4953 25.5355C66.4953 25.0161 66.4396 24.5738 66.3283 24.2086C66.219 23.8435 66.0608 23.5652 65.8538 23.3739C65.6487 23.1825 65.4018 23.0869 65.1127 23.0869C64.6792 23.0869 64.3404 23.3006 64.0963 23.7283C63.8522 24.154 63.7302 24.7564 63.7302 25.5355C63.7302 26.055 63.7848 26.4963 63.8942 26.8595C64.0035 27.2228 64.1608 27.4991 64.3658 27.6885C64.5728 27.8779 64.8218 27.9727 65.1127 27.9727Z" fill="white"/>
</svg>
